<svg width="63" height="64" viewBox="0 0 63 64" fill="none" xmlns="http://www.w3.org/2000/svg">
<path fill-rule="evenodd" clip-rule="evenodd" d="M20.3311 0.849237C20.2085 0.943666 18.9748 3.32387 17.5896 6.13875L15.0711 11.2568V25.8758V40.495L14.2616 41.2525C13.3836 42.0743 12.861 42.9956 12.6209 44.1445C12.4816 44.8115 12.4288 44.8795 11.803 45.1947L11.134 45.5317L10.6721 45.0647L10.2103 44.5979H5.50205H0.793746L0.396873 44.9991C0.132789 45.2662 0 45.5395 0 45.8166C0 46.0454 1.03461 49.9872 2.29909 54.576C4.32025 61.9113 4.64109 62.9566 4.95419 63.2289C5.30979 63.538 5.31834 63.5386 10.2691 63.5386H15.2278L15.6247 63.1374C16.1598 62.5965 16.137 62.2289 15.4239 59.9014C15.1002 58.8446 14.8425 57.9715 14.8513 57.9612C15.0214 57.7643 19.2219 55.2007 19.5832 55.0734C20.0383 54.913 20.5365 54.9657 24.4712 55.5905C31.0909 56.6417 32.0078 56.5362 35.4873 54.3229C36.468 53.6989 39.9769 51.441 43.2848 49.305L49.2991 45.4215H55.878C62.2759 45.4215 62.4644 45.4139 62.7284 45.147C62.997 44.8755 63 44.6895 63 27.9899V11.1072L60.5418 6.13271C59.1899 3.39661 57.9889 1.05003 57.8731 0.917862C57.6746 0.691261 56.6084 0.677673 39.1083 0.677673C24.4744 0.677673 20.5069 0.713908 20.3311 0.849237ZM38.2888 6.44221V10.5597H32.5862C27.0646 10.5597 26.8751 10.5684 26.6121 10.8342C26.4627 10.9852 26.3405 11.2323 26.3405 11.3832C26.3405 11.5342 26.4627 11.7813 26.6121 11.9322C26.865 12.1879 27.0646 12.2067 29.5312 12.2067H32.1789V15.7066C32.1789 19.0236 32.1931 19.221 32.4504 19.481C32.7146 19.7481 32.903 19.7555 39.3673 19.7555H46.0127L46.2239 19.4504C46.4018 19.1939 46.4353 18.594 46.4353 15.676V12.2067H53.903H61.3707V27.9906V43.7744H53.6994H46.028V38.6727C46.028 34.118 46.004 33.5439 45.8033 33.3199C45.3779 32.8447 44.9114 33.0011 44.0595 33.9038L43.2716 34.7388L42.4659 33.9038C41.4233 32.8233 41.235 32.8221 40.1362 33.8888L39.2915 34.7086L38.4889 33.8888C37.9579 33.3464 37.5775 33.0689 37.3648 33.0689C37.1568 33.0689 36.7452 33.3583 36.1987 33.8888L35.354 34.7086L34.5514 33.8888C33.6561 32.9742 33.1729 32.8323 32.7976 33.374C32.6155 33.6366 32.5862 34.3802 32.5862 38.7268V43.7744H30.1444H27.7026L29.2078 40.7206L30.7129 37.6668L30.6548 36.6213C30.5675 35.0527 29.8404 33.9681 28.445 33.3251C27.6457 32.9569 26.3172 32.9867 25.4555 33.3922C24.7241 33.7366 24.3575 34.1294 22.0419 37.0497C21.2933 37.9937 20.4421 38.9318 20.1502 39.1345C19.5466 39.5537 18.7758 39.7603 17.549 39.8312L16.7004 39.8804V26.0436V12.2067H19.3481C21.8147 12.2067 22.0143 12.1879 22.2672 11.9322C22.5869 11.6092 22.6132 11.2641 22.3464 10.8948C22.1719 10.6531 21.9283 10.622 19.7261 10.5597L17.2981 10.4911L19.2735 6.40872L21.2489 2.32633L29.7689 2.32551L38.2888 2.32468V6.44221ZM58.826 6.37413C59.9268 8.60144 60.8276 10.4543 60.8276 10.4917C60.8276 10.5291 56.123 10.5597 50.3728 10.5597H39.9181V6.44221V2.32468H48.3712H56.8244L58.826 6.37413ZM44.806 15.1576V18.1085H39.3071H33.8082V15.1576V12.2067H39.3071H44.806V15.1576ZM20.048 15.6145C19.7554 15.9413 19.7472 17.1143 20.0347 17.5289C20.17 17.7244 20.3869 17.834 20.6379 17.834C21.1785 17.834 21.4526 17.3922 21.4526 16.5208C21.4526 16.0141 21.3833 15.7544 21.2043 15.5907C20.8764 15.2906 20.3278 15.302 20.048 15.6145ZM20.0948 19.0693C19.8336 19.3334 19.8233 19.5267 19.8233 24.1476C19.8233 28.7684 19.8336 28.9618 20.0948 29.2259C20.2442 29.3768 20.4886 29.5004 20.6379 29.5004C20.7873 29.5004 21.0317 29.3768 21.181 29.2259C21.4423 28.9618 21.4526 28.7684 21.4526 24.1476C21.4526 19.5267 21.4423 19.3334 21.181 19.0693C21.0317 18.9183 20.7873 18.7948 20.6379 18.7948C20.4886 18.7948 20.2442 18.9183 20.0948 19.0693ZM28.0729 34.9897C28.6793 35.3633 29.0549 36.0331 29.0555 36.7414C29.0559 37.2155 28.736 37.9724 27.3588 40.7549C26.4254 42.641 25.6616 44.3495 25.6616 44.5518C25.6616 44.754 25.7628 45.0324 25.8863 45.1704C26.1002 45.4094 26.6008 45.4216 36.2393 45.4231L46.3675 45.4248L45.7565 45.82C39.9101 49.6027 33.6059 53.6177 33.1293 53.8618C31.259 54.8201 30.1716 54.8296 24.517 53.9368C19.0063 53.0667 19.6026 52.9843 16.323 55.0691C15.2565 55.747 14.3625 56.2779 14.3362 56.2486C14.2482 56.1512 11.5176 47.1835 11.5635 47.1431C11.5885 47.1212 11.9555 46.9333 12.3792 46.7256C13.5013 46.1755 14.1207 45.6194 14.1207 45.1619C14.1207 44.3832 14.5421 43.3411 15.1081 42.7205C15.9246 41.8249 16.5143 41.5702 18.0917 41.4317C19.4675 41.3109 20.4222 40.9872 21.3308 40.3332C21.555 40.1717 22.6455 38.9159 23.7541 37.5423C24.8629 36.1686 25.9135 34.9749 26.0892 34.8896C26.6088 34.6371 27.5803 34.6861 28.0729 34.9897ZM38.2316 35.9511C38.6982 36.4041 39.1822 36.7747 39.3071 36.7747C39.432 36.7747 39.9161 36.4041 40.3826 35.9511C40.8493 35.4982 41.2795 35.1276 41.3387 35.1276C41.3979 35.1276 41.7592 35.464 42.1418 35.8751C43.0525 36.854 43.4386 36.9525 43.9866 36.346L44.3987 35.8899V39.8322V43.7744H39.3071H34.2155V39.8485V35.9227L34.6955 36.3486C34.9594 36.5829 35.271 36.7747 35.3878 36.7747C35.5047 36.7747 35.9761 36.4053 36.4355 35.9538C36.8946 35.5022 37.2959 35.1316 37.3268 35.1303C37.3578 35.1289 37.765 35.4982 38.2316 35.9511ZM11.8026 53.7938C13.0517 57.9079 14.1191 61.4128 14.1743 61.5827L14.2748 61.8916H10.1244C7.84173 61.8916 5.97414 61.863 5.97414 61.828C5.97414 61.793 5.0271 58.3291 3.86961 54.1303C2.71212 49.9315 1.76509 46.4386 1.76509 46.3685C1.76509 46.2918 3.31809 46.2553 5.64828 46.2772L9.53146 46.3136L11.8026 53.7938ZM7.9046 57.316C6.69592 57.9183 6.34969 59.6061 7.20861 60.7097C8.15402 61.9248 10.1772 61.7388 10.8663 60.3734C11.4179 59.2804 11.0997 58.1093 10.058 57.3999C9.50648 57.0241 8.5642 56.9875 7.9046 57.316ZM9.36704 58.9389C9.46317 59.056 9.49806 59.2901 9.44905 59.4879C9.38184 59.7587 9.27729 59.8328 8.96338 59.8328C8.46875 59.8328 8.19828 59.4245 8.4181 59.0093C8.58932 58.6858 9.12658 58.646 9.36704 58.9389Z" fill="white"/>
</svg>
